<?xml version="1.0" standalone="no"?>
<!DOCTYPE svg PUBLIC "-//W3C//DTD SVG 20010904//EN"
 "http://www.w3.org/TR/2001/REC-SVG-20010904/DTD/svg10.dtd">
<svg version="1.0" xmlns="http://www.w3.org/2000/svg"
 width="512.000000pt" height="512.000000pt" viewBox="0 0 512.000000 512.000000"
 preserveAspectRatio="xMidYMid meet">

<g transform="translate(0.000000,512.000000) scale(0.100000,-0.100000)"
fill="#000000" stroke="none">
<path d="M2080 5100 c-535 -96 -1004 -449 -1277 -960 -115 -214 -185 -434
-237 -736 l-5 -32 137 -47 c182 -62 381 -159 521 -252 126 -84 308 -253 401
-372 30 -38 56 -69 57 -67 1 1 -11 36 -27 78 -36 92 -75 240 -97 368 -13 70
-17 154 -17 325 0 251 14 368 75 602 98 383 297 718 508 857 169 111 314 122
490 35 191 -94 380 -350 503 -679 52 -142 83 -257 114 -435 24 -132 27 -177
27 -375 1 -169 -4 -250 -16 -325 -25 -145 -62 -281 -103 -385 -20 -50 -34 -93
-32 -95 2 -2 37 37 78 87 104 125 298 310 411 391 159 114 387 217 572 257 69
16 68 12 32 200 -60 306 -209 639 -388 870 -277 357 -636 589 -1054 681 -143
32 -521 37 -673 9z"/>
<path d="M4202 2356 c-150 -334 -510 -679 -928 -889 l-71 -36 -17 -68 c-36
-146 -101 -344 -156 -475 -193 -463 -441 -712 -678 -682 -178 22 -352 198
-458 462 -23 57 -44 105 -46 108 -3 2 -52 -3 -109 -12 -190 -29 -515 -2 -662
55 -16 6 -35 11 -43 11 -23 0 7 -50 95 -160 561 -701 1402 -865 2103 -408 489
319 850 925 967 1623 27 163 43 352 39 458 l-3 87 -33 -74z"/>
</g>
</svg>
